<?xml version="1.0" encoding="UTF-8"?>
<svg width="216px" height="99px" viewBox="0 0 216 99" version="1.1" xmlns="http://www.w3.org/2000/svg" xmlns:xlink="http://www.w3.org/1999/xlink">
    <title>Group 94</title>
    <defs>
        <polygon id="path-1" points="0 0 49.148295 0 49.148295 38.8389288 0 38.8389288"></polygon>
        <polygon id="path-3" points="0 0 49.1488867 0 49.1488867 38.8401122 0 38.8401122"></polygon>
        <polygon id="path-5" points="0 0 49.1489854 0 49.1489854 38.8389288 0 38.8389288"></polygon>
        <polygon id="path-7" points="0 0 49.148295 0 49.148295 38.8389288 0 38.8389288"></polygon>
        <polygon id="path-9" points="0 0 49.1492812 0 49.1492812 38.8389288 0 38.8389288"></polygon>
    </defs>
    <g id="Page-1" stroke="none" stroke-width="1" fill="none" fill-rule="evenodd">
        <g id="Version-2.0-Interior" transform="translate(-20.000000, -20.000000)">
            <g id="Group-94" transform="translate(20.000000, 20.000000)">
                <path d="M17.7103101,95.1824379 L18.4115269,95.1824379 C19.1216198,95.1824379 19.405657,94.8273914 19.405657,94.1094085 C19.405657,93.3016778 19.0151059,93.1152784 18.4115269,93.1152784 L17.7103101,93.1152784 L17.7103101,95.1824379 Z M18.4115269,92.2809192 C19.734075,92.2809192 20.2656585,92.9910121 20.2656585,94.1261746 C20.2656585,95.1114286 19.8938459,95.5996175 19.1926291,95.8836547 L19.8317128,97.2328313 C19.9914837,97.5079923 20.1335023,97.6500109 20.2932732,97.6500109 L20.4264156,97.6500109 C20.6838243,97.6500109 20.6838243,97.9162958 20.6838243,97.9162958 L20.6838243,98.2269614 C20.6838243,98.2269614 20.6838243,98.4932463 20.4264156,98.4932463 L20.2400162,98.4932463 C19.7074465,98.4932463 19.4145332,98.217099 19.023982,97.5346208 L18.3316414,96.0256733 L17.7103101,96.0256733 L17.7103101,98.2358376 C17.7103101,98.4932463 17.4617775,98.4932463 17.4617775,98.4932463 L17.1067311,98.4932463 C17.1067311,98.4932463 16.8493224,98.4932463 16.8493224,98.2358376 L16.8493224,92.2809192 L18.4115269,92.2809192 Z" id="Fill-1" fill="#FFFFFF"></path>
                <path d="M25.0184487,92.2807219 C25.2758574,92.2807219 25.2758574,92.5292544 25.2758574,92.5292544 L25.2758574,92.8754248 C25.2758574,92.8754248 25.2758574,93.1239573 25.0273249,93.1239573 L22.7461513,93.1239573 L22.7461513,94.9435705 L24.432622,94.9435705 C24.6900307,94.9435705 24.6900307,95.192103 24.6900307,95.192103 L24.6900307,95.5382733 C24.6900307,95.5382733 24.6900307,95.7868059 24.4414982,95.7868059 L22.7461513,95.7868059 L22.7461513,97.6498137 L25.0184487,97.6498137 C25.2758574,97.6498137 25.2758574,97.8983462 25.2758574,97.8983462 L25.2758574,98.2445165 C25.2758574,98.2445165 25.2758574,98.493049 25.0273249,98.493049 L21.8861498,98.493049 L21.8861498,92.2807219 L25.0184487,92.2807219 Z" id="Fill-3" fill="#FFFFFF"></path>
                <path d="M27.3119503,92.2807219 C27.3119503,92.2807219 27.4894736,92.2807219 27.5871114,92.4759975 L28.5812415,94.8015519 L29.5664955,92.4759975 C29.6552571,92.2807219 29.8406703,92.2807219 29.8406703,92.2807219 L30.3466115,92.2807219 C30.3466115,92.2807219 30.6138826,92.2807219 30.6138826,92.5381306 L30.6138826,98.2356403 C30.6138826,98.2356403 30.6138826,98.493049 30.3466115,98.493049 L30.0191797,98.493049 C30.0191797,98.493049 29.7528949,98.493049 29.7528949,98.2356403 L29.8406703,93.8518026 L29.0516781,95.8400629 C28.9806688,96.0087099 28.9007833,96.025476 28.8031455,96.025476 L28.4037183,96.025476 C28.2972043,96.025476 28.2084427,96.0087099 28.1374334,95.8400629 L27.3030742,93.8074218 L27.3918358,98.2356403 C27.3918358,98.2356403 27.3918358,98.493049 27.1344271,98.493049 L26.7882568,98.493049 C26.7882568,98.493049 26.5308481,98.493049 26.5308481,98.2356403 L26.5308481,92.5381306 C26.5308481,92.5381306 26.5308481,92.2807219 26.7882568,92.2807219 L27.3119503,92.2807219 Z" id="Fill-5" fill="#FFFFFF"></path>
                <path d="M34.1495538,93.1239573 L33.448337,95.7246727 L34.8596467,95.7246727 L34.1673061,93.1239573 L34.1495538,93.1239573 Z M34.5223526,92.2807219 C34.5223526,92.2807219 34.7265043,92.2807219 34.7886374,92.4937498 L36.3863466,98.2090119 C36.466232,98.493049 36.1644425,98.493049 36.1644425,98.493049 L35.7561391,98.493049 C35.6585013,98.493049 35.5519874,98.4220397 35.5076065,98.2800211 L35.0904269,96.5669219 L33.2264329,96.5669219 L32.7826248,98.2800211 C32.738244,98.4220397 32.6317301,98.493049 32.5429685,98.493049 L32.1267751,98.493049 C32.1267751,98.493049 31.8328755,98.493049 31.9137472,98.2090119 L33.5282224,92.4937498 C33.5903556,92.2807219 33.7856311,92.2807219 33.7856311,92.2807219 L34.5223526,92.2807219 Z" id="Fill-7" fill="#FFFFFF"></path>
                <path d="M38.5069603,95.1824379 L39.2081771,95.1824379 C39.91827,95.1824379 40.2023072,94.8273914 40.2023072,94.1094085 C40.2023072,93.3016778 39.8107699,93.1152784 39.2081771,93.1152784 L38.5069603,93.1152784 L38.5069603,95.1824379 Z M39.2081771,92.2809192 C40.529739,92.2809192 41.0623087,92.9910121 41.0623087,94.1261746 C41.0623087,95.1114286 40.6895099,95.5996175 39.9892793,95.8836547 L40.6273768,97.2328313 C40.7871477,97.5079923 40.9291663,97.6500109 41.0889372,97.6500109 L41.2220796,97.6500109 C41.4794883,97.6500109 41.4794883,97.9162958 41.4794883,97.9162958 L41.4794883,98.2269614 C41.4794883,98.2269614 41.4794883,98.4932463 41.2220796,98.4932463 L41.0356802,98.4932463 C40.5031105,98.4932463 40.2111834,98.217099 39.8206323,97.5346208 L39.1282916,96.0256733 L38.5069603,96.0256733 L38.5069603,98.2358376 C38.5069603,98.4932463 38.2584278,98.4932463 38.2584278,98.4932463 L37.9033813,98.4932463 C37.9033813,98.4932463 37.6459726,98.4932463 37.6459726,98.2358376 L37.6459726,92.2809192 L39.2081771,92.2809192 Z" id="Fill-9" fill="#FFFFFF"></path>
                <path d="M43.2852941,92.2807219 C43.2852941,92.2807219 43.5427028,92.2807219 43.5427028,92.5381306 L43.5427028,94.8281804 L45.2202975,92.4582451 C45.3080728,92.2807219 45.4944722,92.2807219 45.4944722,92.2807219 L45.8948858,92.2807219 C45.8948858,92.2807219 46.302203,92.2807219 46.0891751,92.6446445 L44.483576,94.9514604 L45.7262387,97.1705009 C45.9027757,97.4722904 46.027042,97.6498137 46.2400698,97.6498137 L46.2844506,97.6498137 C46.5507355,97.6498137 46.5507355,97.9160985 46.5507355,97.9160985 L46.5507355,98.2267642 C46.5507355,98.2267642 46.5507355,98.493049 46.2844506,98.493049 L46.1069274,98.493049 C45.5654815,98.493049 45.2735544,98.2090119 44.8918795,97.5432997 L43.8622447,95.7680673 L43.5427028,96.2207516 L43.5427028,98.2356403 C43.5427028,98.493049 43.2941703,98.493049 43.2941703,98.493049 L42.9302477,98.493049 C42.9302477,98.493049 42.6817151,98.493049 42.6817151,98.2356403 L42.6817151,92.5381306 C42.6817151,92.2807219 42.9302477,92.2807219 42.9302477,92.2807219 L43.2852941,92.2807219 Z" id="Fill-11" fill="#FFFFFF"></path>
                <path d="M49.9239729,93.1239573 L49.2227561,95.7246727 L50.6340659,95.7246727 L49.9417252,93.1239573 L49.9239729,93.1239573 Z M50.2967717,92.2807219 C50.2967717,92.2807219 50.5009235,92.2807219 50.5630566,92.4937498 L52.1607657,98.2090119 C52.2406512,98.493049 51.9388617,98.493049 51.9388617,98.493049 L51.5305582,98.493049 C51.4329205,98.493049 51.3264065,98.4220397 51.2820257,98.2800211 L50.8648461,96.5669219 L49.0008521,96.5669219 L48.557044,98.2800211 C48.5126632,98.4220397 48.4061492,98.493049 48.3173876,98.493049 L47.9011942,98.493049 C47.9011942,98.493049 47.6072947,98.493049 47.6881664,98.2090119 L49.3026416,92.4937498 C49.3647747,92.2807219 49.5600503,92.2807219 49.5600503,92.2807219 L50.2967717,92.2807219 Z" id="Fill-13" fill="#FFFFFF"></path>
                <path d="M54.2766455,97.6590843 L55.0755001,97.6590843 C55.6790791,97.6590843 56.0873825,97.2951617 56.0873825,96.6294495 C56.0873825,95.8128426 55.6080698,95.6353194 55.0044908,95.6353194 L54.2766455,95.6353194 L54.2766455,97.6590843 Z M54.2766455,94.8196987 L54.8447199,94.8196987 C55.5193082,94.8196987 55.9187355,94.516923 55.9187355,93.9764633 C55.9187355,93.4162789 55.6258221,93.1322417 54.9867385,93.1322417 L54.2766455,93.1322417 L54.2766455,94.8196987 Z M54.9867385,92.2811164 C56.2382773,92.2811164 56.7885993,93.0000855 56.7885993,93.9764633 C56.7885993,94.5524276 56.5223145,94.9518549 56.2382773,95.1648828 C56.7619708,95.44892 56.947384,95.9814897 56.947384,96.6116972 C56.947384,97.5614465 56.4069244,98.4934435 55.0755001,98.4934435 L53.4156578,98.4934435 L53.4156578,92.2811164 L54.9867385,92.2811164 Z" id="Fill-15" fill="#FFFFFF"></path>
                <path d="M58.7669972,92.2807219 C58.7669972,92.2807219 59.0244059,92.2807219 59.0244059,92.5381306 L59.0244059,97.6498137 L60.7897759,97.6498137 C61.0560608,97.6498137 61.0560608,97.8983462 61.0560608,97.8983462 L61.0560608,98.2356403 C61.0560608,98.2356403 61.0560608,98.493049 60.7897759,98.493049 L58.1634182,98.493049 L58.1634182,92.5381306 C58.1634182,92.2807219 58.4119507,92.2807219 58.4119507,92.2807219 L58.7669972,92.2807219 Z" id="Fill-17" fill="#FFFFFF"></path>
                <path d="M65.3569557,92.2807219 C65.6143644,92.2807219 65.6143644,92.5292544 65.6143644,92.5292544 L65.6143644,92.8754248 C65.6143644,92.8754248 65.6143644,93.1239573 65.3658319,93.1239573 L63.0846583,93.1239573 L63.0846583,94.9435705 L64.771129,94.9435705 C65.0285377,94.9435705 65.0285377,95.192103 65.0285377,95.192103 L65.0285377,95.5382733 C65.0285377,95.5382733 65.0285377,95.7868059 64.7800052,95.7868059 L63.0846583,95.7868059 L63.0846583,97.6498137 L65.3569557,97.6498137 C65.6143644,97.6498137 65.6143644,97.8983462 65.6143644,97.8983462 L65.6143644,98.2445165 C65.6143644,98.2445165 65.6143644,98.493049 65.3658319,98.493049 L62.2236705,98.493049 L62.2236705,92.2807219 L65.3569557,92.2807219 Z" id="Fill-19" fill="#FFFFFF"></path>
                <path d="M69.3323914,92.2807219 C69.3323914,92.2807219 69.5898001,92.2807219 69.5898001,92.5381306 L69.5898001,97.6498137 L71.3551701,97.6498137 C71.621455,97.6498137 71.621455,97.8983462 71.621455,97.8983462 L71.621455,98.2356403 C71.621455,98.2356403 71.621455,98.493049 71.3551701,98.493049 L68.7288124,98.493049 L68.7288124,92.5381306 C68.7288124,92.2807219 68.9773449,92.2807219 68.9773449,92.2807219 L69.3323914,92.2807219 Z" id="Fill-21" fill="#FFFFFF"></path>
                <path d="M73.4907747,94.2418606 L73.4907747,96.5407865 C73.4907747,97.3573934 73.8724496,97.7124399 74.4760286,97.7124399 C75.0796077,97.7124399 75.4524065,97.3573934 75.4524065,96.5407865 L75.4524065,94.2418606 C75.4524065,93.4262399 75.0796077,93.0623173 74.4760286,93.0623173 C73.8724496,93.0623173 73.4907747,93.4262399 73.4907747,94.2418606 M76.3124079,94.2418606 L76.3124079,96.5407865 C76.3124079,97.6680591 75.7975905,98.554689 74.4760286,98.554689 C73.1534805,98.554689 72.629787,97.6680591 72.629787,96.5407865 L72.629787,94.2418606 C72.629787,93.1155743 73.1534805,92.2190819 74.4760286,92.2190819 C75.7975905,92.2190819 76.3124079,93.1155743 76.3124079,94.2418606" id="Fill-23" fill="#FFFFFF"></path>
                <path d="M81.0570124,93.6739835 C81.0747647,93.7804974 81.0481362,93.922516 80.8794891,93.975773 L80.5688235,94.0556584 C80.4001764,94.1000392 80.2492816,94.0467823 80.2049008,93.8603829 C80.0717584,93.3011847 79.8054735,93.089143 79.28178,93.089143 C78.6071917,93.089143 78.3862739,93.4964602 78.3862739,93.8337544 C78.3862739,94.1266677 78.4740492,94.3929526 78.7580864,94.5438473 L80.2847863,95.3427019 C80.8262322,95.6267391 81.1368978,96.2027034 81.1368978,96.7895163 C81.1368978,97.7915364 80.4623095,98.5548863 79.28178,98.5548863 C78.5549209,98.5548863 77.463153,98.1377067 77.463153,96.7352731 C77.463153,96.4788506 77.7205617,96.4788506 77.7205617,96.4788506 L78.0756082,96.4788506 C78.0756082,96.4788506 78.3231545,96.4788506 78.3231545,96.7352731 C78.3231545,97.5341277 78.846848,97.7126372 79.28178,97.7126372 C80.0007491,97.7126372 80.2759101,97.2066959 80.2759101,96.7895163 C80.2759101,96.5054791 80.1516438,96.2214419 79.7167119,95.9995379 L78.4395308,95.3427019 C77.6229239,94.9255223 77.5252861,94.2686863 77.5252861,93.8071259 C77.5252861,92.7863673 78.3320306,92.2182929 79.28178,92.2182929 C80.3557956,92.2182929 80.9327461,92.8396242 81.0570124,93.6739835" id="Fill-25" fill="#FFFFFF"></path>
                <path d="M85.7700571,93.6739835 C85.7878094,93.7804974 85.7611809,93.922516 85.5925339,93.975773 L85.2818682,94.0556584 C85.1132211,94.1000392 84.9623264,94.0467823 84.9179456,93.8603829 C84.7848031,93.3011847 84.5185183,93.089143 83.9948247,93.089143 C83.3202364,93.089143 83.0993186,93.4964602 83.0993186,93.8337544 C83.0993186,94.1266677 83.187094,94.3929526 83.4711312,94.5438473 L84.997831,95.3427019 C85.5392769,95.6267391 85.8499426,96.2027034 85.8499426,96.7895163 C85.8499426,97.7915364 85.1753543,98.5548863 83.9948247,98.5548863 C83.2679657,98.5548863 82.1761978,98.1377067 82.1761978,96.7352731 C82.1761978,96.4788506 82.4336065,96.4788506 82.4336065,96.4788506 L82.7886529,96.4788506 C82.7886529,96.4788506 83.0361992,96.4788506 83.0361992,96.7352731 C83.0361992,97.5341277 83.5598928,97.7126372 83.9948247,97.7126372 C84.7137938,97.7126372 84.9889549,97.2066959 84.9889549,96.7895163 C84.9889549,96.5054791 84.8646886,96.2214419 84.4297567,95.9995379 L83.1525756,95.3427019 C82.3359687,94.9255223 82.2383309,94.2686863 82.2383309,93.8071259 C82.2383309,92.7863673 83.0460616,92.2182929 83.9948247,92.2182929 C85.0688403,92.2182929 85.6457908,92.8396242 85.7700571,93.6739835" id="Fill-27" fill="#FFFFFF"></path>
                <path d="M123.517021,95.1818461 L124.218237,95.1818461 C124.92833,95.1818461 125.212368,94.8267997 125.212368,94.1088168 C125.212368,93.301086 124.82083,93.1146866 124.218237,93.1146866 L123.517021,93.1146866 L123.517021,95.1818461 Z M124.218237,92.2803274 C125.539799,92.2803274 126.072369,92.9904204 126.072369,94.1255829 C126.072369,95.1108368 125.69957,95.5990257 124.99934,95.8830629 L125.637437,97.2322395 C125.797208,97.5074006 125.939227,97.6494192 126.098998,97.6494192 L126.23214,97.6494192 C126.489549,97.6494192 126.489549,97.915704 126.489549,97.915704 L126.489549,98.2263697 C126.489549,98.2263697 126.489549,98.4926545 126.23214,98.4926545 L126.045741,98.4926545 C125.513171,98.4926545 125.221244,98.2165073 124.830693,97.534029 L124.138352,96.0250815 L123.517021,96.0250815 L123.517021,98.2352458 C123.517021,98.4926545 123.268488,98.4926545 123.268488,98.4926545 L122.913442,98.4926545 C122.913442,98.4926545 122.656033,98.4926545 122.656033,98.2352458 L122.656033,92.2803274 L124.218237,92.2803274 Z" id="Fill-29" fill="#FFFFFF"></path>
                <path d="M130.558579,92.2800315 C130.815987,92.2800315 130.815987,92.5285641 130.815987,92.5285641 L130.815987,92.8747344 C130.815987,92.8747344 130.815987,93.1232669 130.567455,93.1232669 L128.286281,93.1232669 L128.286281,94.9428801 L129.972752,94.9428801 C130.230161,94.9428801 130.230161,95.1914127 130.230161,95.1914127 L130.230161,95.537583 C130.230161,95.537583 130.230161,95.7861155 129.981628,95.7861155 L128.286281,95.7861155 L128.286281,97.6491233 L130.558579,97.6491233 C130.815987,97.6491233 130.815987,97.8976558 130.815987,97.8976558 L130.815987,98.2438261 C130.815987,98.2438261 130.815987,98.4923587 130.567455,98.4923587 L127.425293,98.4923587 L127.425293,92.2800315 L130.558579,92.2800315 Z" id="Fill-31" fill="#FFFFFF"></path>
                <path d="M132.586091,92.2800315 C132.586091,92.2800315 132.763614,92.2800315 132.861252,92.4753071 L133.855382,94.8008615 L134.840636,92.4753071 C134.929398,92.2800315 135.114811,92.2800315 135.114811,92.2800315 L135.620752,92.2800315 C135.620752,92.2800315 135.888023,92.2800315 135.888023,92.5374402 L135.888023,98.23495 C135.888023,98.23495 135.888023,98.4923587 135.620752,98.4923587 L135.293321,98.4923587 C135.293321,98.4923587 135.027036,98.4923587 135.027036,98.23495 L135.114811,93.8511122 L134.325819,95.8393725 C134.25481,96.0080196 134.174924,96.0247856 134.077286,96.0247856 L133.677859,96.0247856 C133.571345,96.0247856 133.482584,96.0080196 133.411574,95.8393725 L132.577215,93.8067314 L132.665977,98.23495 C132.665977,98.23495 132.665977,98.4923587 132.408568,98.4923587 L132.062398,98.4923587 C132.062398,98.4923587 131.804989,98.4923587 131.804989,98.23495 L131.804989,92.5374402 C131.804989,92.5374402 131.804989,92.2800315 132.062398,92.2800315 L132.586091,92.2800315 Z" id="Fill-33" fill="#FFFFFF"></path>
                <path d="M139.157311,93.1232669 L138.456094,95.7239824 L139.867404,95.7239824 L139.175064,93.1232669 L139.157311,93.1232669 Z M139.53011,92.2800315 C139.53011,92.2800315 139.734262,92.2800315 139.796395,92.4930594 L141.394104,98.2083215 C141.473003,98.4923587 141.1722,98.4923587 141.1722,98.4923587 L140.763896,98.4923587 C140.666259,98.4923587 140.559745,98.4213494 140.515364,98.2793308 L140.098184,96.5662315 L138.23419,96.5662315 L137.790382,98.2793308 C137.746001,98.4213494 137.639487,98.4923587 137.550726,98.4923587 L137.134532,98.4923587 C137.134532,98.4923587 136.840633,98.4923587 136.921505,98.2083215 L138.53598,92.4930594 C138.598113,92.2800315 138.793389,92.2800315 138.793389,92.2800315 L139.53011,92.2800315 Z" id="Fill-35" fill="#FFFFFF"></path>
                <path d="M143.248433,95.1818461 L143.94965,95.1818461 C144.659743,95.1818461 144.94378,94.8267997 144.94378,94.1088168 C144.94378,93.301086 144.552242,93.1146866 143.94965,93.1146866 L143.248433,93.1146866 L143.248433,95.1818461 Z M143.94965,92.2803274 C145.271212,92.2803274 145.804767,92.9904204 145.804767,94.1255829 C145.804767,95.1108368 145.430982,95.5990257 144.730752,95.8830629 L145.368849,97.2322395 C145.52862,97.5074006 145.670639,97.6494192 145.83041,97.6494192 L145.963552,97.6494192 C146.220961,97.6494192 146.220961,97.915704 146.220961,97.915704 L146.220961,98.2263697 C146.220961,98.2263697 146.220961,98.4926545 145.963552,98.4926545 L145.777153,98.4926545 C145.244583,98.4926545 144.952656,98.2165073 144.562105,97.534029 L143.869764,96.0250815 L143.248433,96.0250815 L143.248433,98.2352458 C143.248433,98.4926545 142.9999,98.4926545 142.9999,98.4926545 L142.644854,98.4926545 C142.644854,98.4926545 142.387445,98.4926545 142.387445,98.2352458 L142.387445,92.2803274 L143.94965,92.2803274 Z" id="Fill-37" fill="#FFFFFF"></path>
                <path d="M147.760778,92.2800315 C147.760778,92.2800315 148.018186,92.2800315 148.018186,92.5374402 L148.018186,94.82749 L149.695781,92.4575548 C149.783556,92.2800315 149.969956,92.2800315 149.969956,92.2800315 L150.370369,92.2800315 C150.370369,92.2800315 150.777687,92.2800315 150.564659,92.6439542 L148.95906,94.95077 L150.201722,97.1698105 C150.378259,97.4716 150.502526,97.6491233 150.715553,97.6491233 L150.759934,97.6491233 C151.026219,97.6491233 151.026219,97.9154081 151.026219,97.9154081 L151.026219,98.2260738 C151.026219,98.2260738 151.026219,98.4923587 150.759934,98.4923587 L150.582411,98.4923587 C150.040965,98.4923587 149.749038,98.2083215 149.367363,97.5426093 L148.337728,95.7673769 L148.018186,96.2200612 L148.018186,98.23495 C148.018186,98.4923587 147.769654,98.4923587 147.769654,98.4923587 L147.405731,98.4923587 C147.405731,98.4923587 147.157199,98.4923587 147.157199,98.23495 L147.157199,92.5374402 C147.157199,92.2800315 147.405731,92.2800315 147.405731,92.2800315 L147.760778,92.2800315 Z" id="Fill-39" fill="#FFFFFF"></path>
                <path d="M154.133073,93.1232669 L153.431856,95.7239824 L154.843166,95.7239824 L154.150825,93.1232669 L154.133073,93.1232669 Z M154.505872,92.2800315 C154.505872,92.2800315 154.710024,92.2800315 154.772157,92.4930594 L156.369866,98.2083215 C156.448765,98.4923587 156.147962,98.4923587 156.147962,98.4923587 L155.739658,98.4923587 C155.642021,98.4923587 155.535507,98.4213494 155.491126,98.2793308 L155.073946,96.5662315 L153.209952,96.5662315 L152.766144,98.2793308 C152.721763,98.4213494 152.615249,98.4923587 152.526488,98.4923587 L152.110294,98.4923587 C152.110294,98.4923587 151.816395,98.4923587 151.897266,98.2083215 L153.511742,92.4930594 C153.573875,92.2800315 153.76915,92.2800315 153.76915,92.2800315 L154.505872,92.2800315 Z" id="Fill-41" fill="#FFFFFF"></path>
                <path d="M158.219461,97.6583939 L159.018315,97.6583939 C159.621894,97.6583939 160.029212,97.2944713 160.029212,96.6287592 C160.029212,95.8121523 159.550885,95.634629 158.947306,95.634629 L158.219461,95.634629 L158.219461,97.6583939 Z M158.219461,94.8190084 L158.787535,94.8190084 C159.462123,94.8190084 159.861551,94.5162326 159.861551,93.975773 C159.861551,93.4155885 159.568637,93.1315513 158.929554,93.1315513 L158.219461,93.1315513 L158.219461,94.8190084 Z M158.929554,92.280426 C160.181093,92.280426 160.731415,92.9993952 160.731415,93.975773 C160.731415,94.5517373 160.464143,94.9511645 160.181093,95.1641924 C160.7038,95.4482296 160.890199,95.9807993 160.890199,96.6110068 C160.890199,97.5607562 160.34974,98.4927532 159.018315,98.4927532 L157.358473,98.4927532 L157.358473,92.280426 L158.929554,92.280426 Z" id="Fill-43" fill="#FFFFFF"></path>
                <path d="M162.443528,92.2800315 C162.443528,92.2800315 162.700936,92.2800315 162.700936,92.5374402 L162.700936,97.6491233 L164.466306,97.6491233 C164.732591,97.6491233 164.732591,97.8976558 164.732591,97.8976558 L164.732591,98.23495 C164.732591,98.23495 164.732591,98.4923587 164.466306,98.4923587 L161.839949,98.4923587 L161.839949,92.5374402 C161.839949,92.2800315 162.088481,92.2800315 162.088481,92.2800315 L162.443528,92.2800315 Z" id="Fill-45" fill="#FFFFFF"></path>
                <path d="M168.767497,92.2800315 C169.024906,92.2800315 169.024906,92.5285641 169.024906,92.5285641 L169.024906,92.8747344 C169.024906,92.8747344 169.024906,93.1232669 168.776373,93.1232669 L166.4952,93.1232669 L166.4952,94.9428801 L168.18167,94.9428801 C168.439079,94.9428801 168.439079,95.1914127 168.439079,95.1914127 L168.439079,95.537583 C168.439079,95.537583 168.439079,95.7861155 168.190547,95.7861155 L166.4952,95.7861155 L166.4952,97.6491233 L168.767497,97.6491233 C169.024906,97.6491233 169.024906,97.8976558 169.024906,97.8976558 L169.024906,98.2438261 C169.024906,98.2438261 169.024906,98.4923587 168.776373,98.4923587 L165.635198,98.4923587 L165.635198,92.2800315 L168.767497,92.2800315 Z" id="Fill-47" fill="#FFFFFF"></path>
                <path d="M172.467575,95.5104614 L173.097782,95.5104614 C173.701361,95.5104614 174.091912,95.2264242 174.091912,94.4275696 L174.091912,94.2056656 C174.091912,93.3989211 173.701361,93.1050215 173.097782,93.1050215 L172.467575,93.1050215 L172.467575,95.5104614 Z M173.097782,92.2795384 C174.419344,92.2795384 174.9529,93.0882554 174.9529,94.2056656 L174.9529,94.4275696 C174.9529,95.545966 174.419344,96.3448206 173.097782,96.3448206 L172.467575,96.3448206 L172.467575,98.2344569 C172.467575,98.4918655 172.219042,98.4918655 172.219042,98.4918655 L171.863996,98.4918655 C171.863996,98.4918655 171.606587,98.4918655 171.606587,98.2344569 L171.606587,92.2795384 L173.097782,92.2795384 Z" id="Fill-49" fill="#FFFFFF"></path>
                <path d="M176.85161,95.1818461 L177.552826,95.1818461 C178.262919,95.1818461 178.546956,94.8267997 178.546956,94.1088168 C178.546956,93.301086 178.155419,93.1146866 177.552826,93.1146866 L176.85161,93.1146866 L176.85161,95.1818461 Z M177.552826,92.2803274 C178.874388,92.2803274 179.406958,92.9904204 179.406958,94.1255829 C179.406958,95.1108368 179.034159,95.5990257 178.333929,95.8830629 L178.972026,97.2322395 C179.131797,97.5074006 179.273816,97.6494192 179.433586,97.6494192 L179.566729,97.6494192 C179.824138,97.6494192 179.824138,97.915704 179.824138,97.915704 L179.824138,98.2263697 C179.824138,98.2263697 179.824138,98.4926545 179.566729,98.4926545 L179.380329,98.4926545 C178.84776,98.4926545 178.555833,98.2165073 178.165282,97.534029 L177.472941,96.0250815 L176.85161,96.0250815 L176.85161,98.2352458 C176.85161,98.4926545 176.603077,98.4926545 176.603077,98.4926545 L176.248031,98.4926545 C176.248031,98.4926545 175.990622,98.4926545 175.990622,98.2352458 L175.990622,92.2803274 L177.552826,92.2803274 Z" id="Fill-51" fill="#FFFFFF"></path>
                <path d="M181.462381,94.2411702 L181.462381,96.5400962 C181.462381,97.3567031 181.844056,97.7117495 182.447635,97.7117495 C183.050228,97.7117495 183.424013,97.3567031 183.424013,96.5400962 L183.424013,94.2411702 C183.424013,93.4255496 183.050228,93.0616269 182.447635,93.0616269 C181.844056,93.0616269 181.462381,93.4255496 181.462381,94.2411702 M184.284014,94.2411702 L184.284014,96.5400962 C184.284014,97.6673687 183.769197,98.5539987 182.447635,98.5539987 C181.125087,98.5539987 180.601393,97.6673687 180.601393,96.5400962 L180.601393,94.2411702 C180.601393,93.1148839 181.125087,92.2183915 182.447635,92.2183915 C183.769197,92.2183915 184.284014,93.1148839 184.284014,94.2411702" id="Fill-53" fill="#FFFFFF"></path>
                <path d="M188.814901,93.7092909 C188.832653,93.8148186 188.806024,93.9666996 188.637377,94.0110804 L188.300083,94.0988557 C188.131436,94.1442228 187.998294,94.0455988 187.971665,93.9035802 C187.89178,93.389749 187.598866,93.061331 187.030792,93.061331 C186.36508,93.061331 186.098795,93.4075014 186.098795,94.2329844 L186.098795,96.5309241 C186.098795,97.3564072 186.409461,97.7114537 187.092925,97.7114537 C187.696504,97.7114537 188.051551,97.347531 188.051551,96.5309241 L188.051551,96.19363 L187.137306,96.19363 C186.879897,96.19363 186.879897,95.9362213 186.879897,95.9362213 L186.879897,95.6078033 C186.879897,95.6078033 186.879897,95.3503946 187.137306,95.3503946 L188.65513,95.3503946 C188.65513,95.3503946 188.912538,95.3503946 188.912538,95.6078033 L188.912538,96.5309241 C188.912538,97.6581967 188.415473,98.554689 187.092925,98.554689 C185.868015,98.554689 185.238794,97.7025775 185.238794,96.5309241 L185.238794,94.2329844 C185.238794,93.061331 185.806868,92.2180957 187.030792,92.2180957 C188.184693,92.2180957 188.690634,92.892684 188.814901,93.7092909" id="Fill-55" fill="#FFFFFF"></path>
                <path d="M190.775448,95.1818461 L191.476664,95.1818461 C192.186757,95.1818461 192.470794,94.8267997 192.470794,94.1088168 C192.470794,93.301086 192.080243,93.1146866 191.476664,93.1146866 L190.775448,93.1146866 L190.775448,95.1818461 Z M191.476664,92.2803274 C192.799212,92.2803274 193.330796,92.9904204 193.330796,94.1255829 C193.330796,95.1108368 192.958983,95.5990257 192.257767,95.8830629 L192.89685,97.2322395 C193.056621,97.5074006 193.19864,97.6494192 193.358411,97.6494192 L193.491553,97.6494192 C193.748962,97.6494192 193.748962,97.915704 193.748962,97.915704 L193.748962,98.2263697 C193.748962,98.2263697 193.748962,98.4926545 193.491553,98.4926545 L193.305154,98.4926545 C192.772584,98.4926545 192.479671,98.2165073 192.08912,97.534029 L191.396779,96.0250815 L190.775448,96.0250815 L190.775448,98.2352458 C190.775448,98.4926545 190.526915,98.4926545 190.526915,98.4926545 L190.171869,98.4926545 C190.171869,98.4926545 189.91446,98.4926545 189.91446,98.2352458 L189.91446,92.2803274 L191.476664,92.2803274 Z" id="Fill-57" fill="#FFFFFF"></path>
                <path d="M197.8174,92.2800315 C198.074809,92.2800315 198.074809,92.5285641 198.074809,92.5285641 L198.074809,92.8747344 C198.074809,92.8747344 198.074809,93.1232669 197.826276,93.1232669 L195.545102,93.1232669 L195.545102,94.9428801 L197.231573,94.9428801 C197.488982,94.9428801 197.488982,95.1914127 197.488982,95.1914127 L197.488982,95.537583 C197.488982,95.537583 197.488982,95.7861155 197.240449,95.7861155 L195.545102,95.7861155 L195.545102,97.6491233 L197.8174,97.6491233 C198.074809,97.6491233 198.074809,97.8976558 198.074809,97.8976558 L198.074809,98.2438261 C198.074809,98.2438261 198.074809,98.4923587 197.826276,98.4923587 L194.684115,98.4923587 L194.684115,92.2800315 L197.8174,92.2800315 Z" id="Fill-59" fill="#FFFFFF"></path>
                <path d="M202.392075,93.6732931 C202.409828,93.779807 202.383199,93.9218256 202.214552,93.9750826 L201.903886,94.0549681 C201.735239,94.0993489 201.584344,94.0460919 201.539964,93.8596925 C201.406821,93.3004943 201.140536,93.0884526 200.616843,93.0884526 C199.942254,93.0884526 199.721337,93.4957699 199.721337,93.833064 C199.721337,94.1259774 199.809112,94.3922622 200.093149,94.543157 L201.619849,95.3420115 C202.161295,95.6260487 202.471961,96.202013 202.471961,96.7888259 C202.471961,97.790846 201.797372,98.5541959 200.616843,98.5541959 C199.889984,98.5541959 198.798216,98.1370163 198.798216,96.735569 C198.798216,96.4781603 199.055625,96.4781603 199.055625,96.4781603 L199.410671,96.4781603 C199.410671,96.4781603 199.658217,96.4781603 199.658217,96.735569 C199.658217,97.5334373 200.181911,97.7119468 200.616843,97.7119468 C201.335812,97.7119468 201.610973,97.2060056 201.610973,96.7888259 C201.610973,96.5047888 201.486707,96.2207516 201.051775,95.9988475 L199.774594,95.3420115 C198.957987,94.9248319 198.860349,94.2679959 198.860349,93.8064355 C198.860349,92.7856769 199.66808,92.2176025 200.616843,92.2176025 C201.690858,92.2176025 202.267809,92.8389339 202.392075,93.6732931" id="Fill-61" fill="#FFFFFF"></path>
                <path d="M206.838736,93.6732931 C206.856489,93.779807 206.82986,93.9218256 206.661213,93.9750826 L206.350548,94.0549681 C206.1819,94.0993489 206.031006,94.0460919 205.986625,93.8596925 C205.853482,93.3004943 205.587198,93.0884526 205.063504,93.0884526 C204.388916,93.0884526 204.167998,93.4957699 204.167998,93.833064 C204.167998,94.1259774 204.255773,94.3922622 204.539811,94.543157 L206.06651,95.3420115 C206.607956,95.6260487 206.918622,96.202013 206.918622,96.7888259 C206.918622,97.790846 206.244034,98.5541959 205.063504,98.5541959 C204.336645,98.5541959 203.244877,98.1370163 203.244877,96.735569 C203.244877,96.4781603 203.502286,96.4781603 203.502286,96.4781603 L203.857332,96.4781603 C203.857332,96.4781603 204.104879,96.4781603 204.104879,96.735569 C204.104879,97.5334373 204.628572,97.7119468 205.063504,97.7119468 C205.782473,97.7119468 206.057634,97.2060056 206.057634,96.7888259 C206.057634,96.5047888 205.933368,96.2207516 205.498436,95.9988475 L204.220269,95.3420115 C203.404648,94.9248319 203.30701,94.2679959 203.30701,93.8064355 C203.30701,92.7856769 204.114741,92.2176025 205.063504,92.2176025 C206.13752,92.2176025 206.71447,92.8389339 206.838736,93.6732931" id="Fill-63" fill="#FFFFFF"></path>
                <path d="M76.6572961,62.8398734 C81.7048736,62.8398734 81.7048736,58.7094994 81.7048736,56.4145184 L81.7048736,40.6830007 L71.885866,40.6830007 L71.885866,57.1492674 C71.885866,58.6187653 71.885866,62.8398734 76.6572961,62.8398734" id="Fill-65" fill="#FFFFFF"></path>
                <path d="M92.2576439,40.6826062 L92.2576439,56.3243761 C92.2576439,59.6282808 91.6146153,64.3079906 87.8521088,67.7026294 C84.182309,71.0065342 79.5025992,71.0982545 77.1158978,71.0982545 C61.3330956,71.0982545 61.3330956,60.4537639 61.3330956,56.0482288 L61.3330956,40.6826062 L52.2212223,40.6826062 L52.2212223,76.7928055 C52.2212223,78.2997806 53.4431739,79.5217322 54.9511352,79.5217322 L98.6386181,79.5217322 C100.146579,79.5217322 101.369517,78.2997806 101.369517,76.7928055 L101.369517,40.6826062 L92.2576439,40.6826062 Z" id="Fill-67" fill="#FFFFFF"></path>
                <path d="M76.933542,16.4074868 C71.8859646,16.4074868 71.8859646,20.2617135 71.8859646,22.829883 L71.8859646,38.8395205 L81.7049722,38.8395205 L81.7049722,23.289471 C81.7049722,20.0772866 81.7049722,16.4074868 76.933542,16.4074868" id="Fill-69" fill="#FFFFFF"></path>
                <g id="Group-73" transform="translate(52.221420, 0.000000)">
                    <mask id="mask-2" fill="white">
                        <use xlink:href="#path-1"></use>
                    </mask>
                    <g id="Clip-72"></g>
                    <path d="M46.4173958,-0.000197248043 L2.72991292,-0.000197248043 C1.22195163,-0.000197248043 -1.91846539e-13,1.22274062 -1.91846539e-13,2.72971567 L-1.91846539e-13,38.8389288 L9.11187337,38.8389288 L9.11187337,24.4832161 C9.11187337,20.4455487 9.29432781,17.2323781 11.4966022,14.111914 C14.5253459,9.80007179 19.6636575,8.42229421 24.4360739,8.42229421 C40.0364216,8.42229421 40.0364216,19.7107997 40.0364216,23.4733062 L40.0364216,38.8389288 L49.148295,38.8389288 L49.148295,2.72971567 C49.148295,1.22274062 47.9253571,-0.000197248043 46.4173958,-0.000197248043" id="Fill-71" fill="#FFFFFF" mask="url(#mask-2)"></path>
                </g>
                <g id="Group-76" transform="translate(0.000000, 40.682606)">
                    <mask id="mask-4" fill="white">
                        <use xlink:href="#path-3"></use>
                    </mask>
                    <g id="Clip-75"></g>
                    <path d="M39.1138925,0 C39.8861186,1.48034657 40.0843529,3.69346961 40.0843529,7.19856735 L40.0843529,16.4672529 C40.0843529,27.2961705 31.9182839,30.4156483 24.6674458,30.4156483 C14.4825431,30.4156483 9.0680843,24.8197213 9.0680843,17.8460167 L9.0680843,11.7776807 C9.10852015,11.4107993 9.3304242,10.4176554 10.5553346,10.411738 L18.1493842,10.411738 C18.2983065,10.4156829 19.5715426,10.5014858 19.6218409,11.8496762 L19.6218409,16.9258546 C19.6218409,18.7632201 19.6218409,22.2495793 24.8508865,22.2495793 C27.7879099,22.2495793 29.438876,20.7810676 29.438876,17.2937222 L29.438876,8.20847733 C29.438876,1.4468144 27.0423123,0.673602068 20.7629208,0.600620292 C20.5489067,0.581881728 19.9640662,0.479312746 19.6159234,0 L-0.000394496087,0 L-0.000394496087,36.1101993 C-0.000394496087,37.6171744 1.22254337,38.8401122 2.73050467,38.8401122 L46.4179876,38.8401122 C47.9259489,38.8401122 49.1488867,37.6171744 49.1488867,36.1101993 L49.1488867,0 L39.1138925,0 Z" id="Fill-74" fill="#FFFFFF" mask="url(#mask-4)"></path>
                </g>
                <g id="Group-79">
                    <mask id="mask-6" fill="white">
                        <use xlink:href="#path-5"></use>
                    </mask>
                    <g id="Clip-78"></g>
                    <path d="M46.4180862,-0.000197248043 L2.73060329,-0.000197248043 C1.222642,-0.000197248043 -0.000295872065,1.22274062 -0.000295872065,2.73070191 L-0.000295872065,38.8389288 L19.3457922,38.8389288 L19.3457922,35.4936019 C19.3743932,35.1711014 19.5686825,34.1592189 20.7501983,34.1000445 C26.833328,33.9609846 29.0720933,32.7508679 29.0720933,26.6845043 L29.0720933,22.0975011 C29.0720933,19.8962129 29.0720933,16.7737764 24.4841038,16.7737764 C19.7126736,16.7737764 19.7126736,20.262108 19.7126736,21.2710318 L19.7126736,26.1785631 C19.6594166,26.5750316 19.4128566,27.5080149 18.2185197,27.5080149 L11.1205488,27.5080149 C11.1205488,27.5080149 9.6658445,27.5011112 9.61850497,26.0621867 L9.61850497,19.986947 C9.61850497,16.4078812 11.2704573,12.9195496 14.299201,10.9924362 C17.3269585,8.97458873 21.8232277,8.42426669 24.8509851,8.42426669 C39.1662619,8.42426669 39.7175702,18.7935963 39.7175702,20.7207097 L39.7175702,27.8788412 C39.7175702,34.2105034 38.4472928,36.3200712 31.8414558,37.328995 C34.3228362,37.7422296 36.0734126,38.1456019 37.3032541,38.8389288 L49.1489854,38.8389288 L49.1489854,2.73070191 C49.1489854,1.22274062 47.9260475,-0.000197248043 46.4180862,-0.000197248043" id="Fill-77" fill="#FFFFFF" mask="url(#mask-6)"></path>
                </g>
                <path d="M190.314183,62.8398734 C195.36176,62.8398734 195.36176,58.7094994 195.36176,56.4145184 L195.36176,40.6830007 L185.542753,40.6830007 L185.542753,57.1492674 C185.542753,58.6187653 185.542753,62.8398734 190.314183,62.8398734" id="Fill-80" fill="#FFFFFF"></path>
                <path d="M205.914531,40.6826062 L205.914531,56.3243761 C205.914531,59.6282808 205.271502,64.3079906 201.509982,67.7026294 C197.839196,71.0065342 193.159486,71.0982545 190.772785,71.0982545 C174.989983,71.0982545 174.989983,60.4537639 174.989983,56.0482288 L174.989983,40.6826062 L165.878109,40.6826062 L165.878109,76.7928055 C165.878109,78.2997806 167.100061,79.5217322 168.608022,79.5217322 L212.295505,79.5217322 C213.803466,79.5217322 215.026404,78.2997806 215.026404,76.7928055 L215.026404,40.6826062 L205.914531,40.6826062 Z" id="Fill-82" fill="#FFFFFF"></path>
                <path d="M190.590528,16.4074868 C185.54295,16.4074868 185.54295,20.2617135 185.54295,22.829883 L185.54295,38.8395205 L195.361958,38.8395205 L195.361958,23.289471 C195.361958,20.0772866 195.361958,16.4074868 190.590528,16.4074868" id="Fill-84" fill="#FFFFFF"></path>
                <g id="Group-88" transform="translate(165.878405, 0.000000)">
                    <mask id="mask-8" fill="white">
                        <use xlink:href="#path-7"></use>
                    </mask>
                    <g id="Clip-87"></g>
                    <path d="M46.4173958,-0.000197248043 L2.72991292,-0.000197248043 C1.22195163,-0.000197248043 -2.13162821e-13,1.22274062 -2.13162821e-13,2.72971567 L-2.13162821e-13,38.8389288 L9.11187337,38.8389288 L9.11187337,24.4832161 C9.11187337,20.4455487 9.29432781,17.2323781 11.4966022,14.111914 C14.5253459,9.80007179 19.6636575,8.42229421 24.4360739,8.42229421 C40.0364216,8.42229421 40.0364216,19.7107997 40.0364216,23.4733062 L40.0364216,38.8389288 L49.148295,38.8389288 L49.148295,2.72971567 C49.148295,1.22274062 47.9253571,-0.000197248043 46.4173958,-0.000197248043" id="Fill-86" fill="#FFFFFF" mask="url(#mask-8)"></path>
                </g>
                <path d="M152.770779,40.6826062 C153.543005,42.1629528 153.74124,44.3760758 153.74124,47.8811736 L153.74124,57.1498591 C153.74124,67.9787767 145.575171,71.0982545 138.324333,71.0982545 C128.13943,71.0982545 122.724971,65.5023275 122.724971,58.5286229 L122.724971,52.4602869 C122.765407,52.0934055 122.987311,51.1002616 124.212221,51.0943442 L131.806271,51.0943442 C131.955193,51.0982892 133.228429,51.184092 133.278728,52.5322824 L133.278728,57.6084608 C133.278728,59.4458263 133.278728,62.9321855 138.507773,62.9321855 C141.444797,62.9321855 143.095763,61.4636738 143.095763,57.9763284 L143.095763,48.8910835 C143.095763,42.1294206 140.699199,41.3562083 134.419808,41.2832265 C134.205794,41.2644879 133.620953,41.161919 133.27281,40.6826062 L113.656492,40.6826062 L113.656492,76.7928055 C113.656492,78.2997806 114.87943,79.5227185 116.387392,79.5227185 L160.074874,79.5227185 C161.582836,79.5227185 162.805774,78.2997806 162.805774,76.7928055 L162.805774,40.6826062 L152.770779,40.6826062 Z" id="Fill-89" fill="#FFFFFF"></path>
                <g id="Group-93" transform="translate(113.656591, 0.000000)">
                    <mask id="mask-10" fill="white">
                        <use xlink:href="#path-9"></use>
                    </mask>
                    <g id="Clip-92"></g>
                    <path d="M46.4183821,-0.000197248043 L2.73089916,-0.000197248043 C1.22293787,-0.000197248043 0,1.22274062 0,2.73070191 L0,38.8389288 L19.3460881,38.8389288 L19.3460881,35.4936019 C19.3746891,35.1711014 19.5689784,34.1592189 20.7504942,34.1000445 C26.8336238,33.9609846 29.0723891,32.7508679 29.0723891,26.6845043 L29.0723891,22.0975011 C29.0723891,19.8962129 29.0723891,16.7737764 24.4843996,16.7737764 C19.7129695,16.7737764 19.7129695,20.262108 19.7129695,21.2710318 L19.7129695,26.1785631 C19.6597125,26.5750316 19.4131524,27.5080149 18.2188155,27.5080149 L11.1208447,27.5080149 C11.1208447,27.5080149 9.66614037,27.5011112 9.61880084,26.0621867 L9.61880084,19.986947 C9.61880084,16.4078812 11.2707532,12.9195496 14.2994969,10.9924362 C17.3272544,8.97458873 21.8235235,8.42426669 24.851281,8.42426669 C39.1665578,8.42426669 39.717866,18.7935963 39.717866,20.7207097 L39.717866,27.8788412 C39.717866,34.2105034 38.4475886,36.3200712 31.8417517,37.328995 C34.323132,37.7422296 36.0737084,38.1456019 37.30355,38.8389288 L49.1492812,38.8389288 L49.1492812,2.73070191 C49.1492812,1.22274062 47.9263434,-0.000197248043 46.4183821,-0.000197248043" id="Fill-91" fill="#FFFFFF" mask="url(#mask-10)"></path>
                </g>
            </g>
        </g>
    </g>
</svg>