<?xml version="1.0" encoding="UTF-8"?>
<svg width="272px" height="272px" viewBox="0 0 272 272" version="1.1" xmlns="http://www.w3.org/2000/svg" xmlns:xlink="http://www.w3.org/1999/xlink">
    <title>BTCG_Logo_Stacked1</title>
    <g id="Page-1" stroke="none" stroke-width="1" fill="none" fill-rule="evenodd">
        <g id="Version-2.0-Interior" transform="translate(-664.000000, -3216.000000)" fill-rule="nonzero">
            <g id="BTCG_Logo_Stacked1" transform="translate(800.000000, 3352.000000) rotate(-360.000000) translate(-800.000000, -3352.000000) translate(664.000000, 3216.000000)">
                <g id="Circles">
                    <path d="M196.759789,107.460813 C243.386316,107.460813 272,136.267876 272,182.690588 C272,200.098658 264.809895,226.436238 254.728,238.443655 C237.380842,259.115738 220.126737,272 190.983368,272 C144.353263,272 99.9850526,230.008042 108.900211,184.440701 C115.560632,150.394038 131.172,131.171434 152.463158,119.790336 C165.218526,112.961677 179.273053,107.460813 196.759789,107.460813 Z" id="Path" fill="#B3B3AA" style="mix-blend-mode: multiply;"></path>
                    <path d="M255.651368,99.1540423 C254.201895,138.841149 221.776632,171.48128 171.789474,177.873306 C125.155789,183.871646 67.5383158,142.770849 74.6246316,91.2230631 C77.4663158,70.55098 82.8812632,49.6570013 96.1806316,35.9137882 C114.114737,17.3819242 135.713684,-2.0482591 165.057474,0.174276151 C205.406526,3.2199726 220.821053,24.4002682 238.060842,43.2435018 C250.941474,57.3159794 256.431579,77.7697458 255.651368,99.1540423 Z" id="Path" fill="#307978" style="mix-blend-mode: multiply;"></path>
                    <path d="M106.978316,43.0860275 C168.657895,47.8317308 216.648,85.2569338 217.897053,143.296957 C219.364421,211.612178 181.320211,241.378403 120.062947,249.373804 C88.2818947,253.52182 60.8313684,245.708947 40.2846316,229.102564 C21.7063158,214.08882 0,186.681131 0,159.173231 C0,101.236998 46.1433684,38.4047456 106.978316,43.0860275 Z" id="Path" fill="#EF6055" style="mix-blend-mode: multiply;"></path>
                </g>
                <g id="Wordmark" transform="translate(45.000000, 79.000000)" fill="#FFFFFF">
                    <path d="M2.34117953,0.00358004316 L10.932664,0.00358004316 C18.9871808,0.00358004316 21.9440834,4.62899581 21.9440834,11.857103 L21.9440834,14.7211375 C21.9440834,22.5972324 19.7962122,25.0817824 16.7175969,26.1772756 C20.1398716,27.118827 23.1612103,30.190504 23.1612103,37.4794719 L23.1612103,41.5678812 C23.1612103,51.592002 20.1649301,56.3570395 10.7214567,56.3570395 L2.34117953,56.3570395 L2.34117953,0.00358004316 Z M11.1653501,24.4588549 C16.3274004,24.4588549 17.9025058,22.0459058 17.9025058,14.8213787 L17.9025058,12.0754856 C17.9025058,6.67320046 15.8763474,3.65522407 10.5675259,3.65522407 L6.42213467,3.65522407 L6.42213467,24.4588549 L11.1653501,24.4588549 Z M6.42213467,52.7018154 L10.5353079,52.7018154 C17.3118413,52.7018154 18.9871808,49.3329948 18.9871808,41.5106005 L18.9871808,37.5152723 C18.9871808,30.9279929 16.3202408,28.0854386 10.9684619,28.0854386 L6.42213467,28.0854386 L6.42213467,52.7018154 Z M43.6017839,27.9995176 L30.7968922,27.9995176 L30.7968922,52.5442935 L45.1876287,52.5442935 L45.1876287,56.3462994 L26.6586605,56.3462994 L26.6586605,0.00358004316 L43.6447413,0.00358004316 L43.6447413,3.81632601 L30.7968922,3.81632601 L30.7968922,24.1939317 L43.6053637,24.1939317 L43.6017839,27.9995176 Z M57.5844249,5.37006475 L49.1719297,5.37006475 L49.1719297,0 L71.9393636,0 L71.9393636,5.37006475 L63.5805652,5.37006475 L63.5805652,56.3391393 L57.5844249,56.3391393 L57.5844249,5.37006475 Z M75.2148671,0 L81.2074276,0 L81.2074276,23.3526216 L92.9312241,23.3526216 L92.9312241,0.00358004316 L98.9237846,0.00358004316 L98.9237846,56.3391393 L92.9312241,56.3391393 L92.9312241,28.8694681 L81.2074276,28.8694681 L81.2074276,56.3391393 L75.2148671,56.3391393 L75.2148671,0 Z M121.207948,29.0556303 L109.276523,29.0556303 L109.276523,50.8115526 L123.620723,50.8115526 L123.620723,56.3248191 L103.283963,56.3248191 L103.283963,0.00358004316 L122.614803,0.00358004316 L122.614803,5.55264695 L109.276523,5.55264695 L109.276523,23.5459439 L121.207948,23.5459439 L121.207948,29.0556303 Z M25.6276823,99.4106386 L25.6276823,101.605205 C25.6276823,108.049283 24.5537468,117.078152 12.6438014,117.078152 C2.20872748,117.078152 0,110.555313 0,101.959629 L0,73.5555668 C0,64.863222 3.93776373,59.0993525 12.7905726,59.0993525 C23.3580985,59.0993525 25.3770974,66.101917 25.3770974,73.9064111 L25.3770974,76.4124413 L16.6782193,76.4124413 L16.6782193,72.8717786 C16.6782193,69.1270534 15.8011719,66.9969278 12.783413,66.9969278 C9.76565406,66.9969278 8.84564926,69.0447125 8.84564926,72.9004189 L8.84564926,102.722178 C8.84564926,106.395303 9.57950523,109.252177 12.8764874,109.252177 C16.0123793,109.252177 16.8464692,106.771207 16.8464692,102.578977 L16.8464692,99.4285388 L25.6276823,99.4106386 Z M29.1680899,59.9191824 L37.8562286,59.9191824 L37.8562286,82.1584106 L47.2066276,82.1584106 L47.2066276,59.9227625 L55.8947663,59.9227625 L55.8947663,116.258322 L47.217367,116.258322 L47.217367,90.1526469 L37.866968,90.1526469 L37.866968,116.258322 L29.1788293,116.258322 L29.1680899,59.9191824 Z M69.5373278,101.18634 L67.5648661,116.258322 L58.7192168,116.258322 L67.7903926,59.9227625 L80.0654761,59.9227625 L89.5053697,116.258322 L80.4198748,116.258322 L78.2039878,101.18634 L69.5373278,101.18634 Z M77.1765894,93.1956836 C75.8878667,83.6298083 74.0156391,68.8800305 74.0156391,68.8800305 L73.6970382,68.8800305 C73.6970382,68.8800305 71.7603744,84.8828234 70.6363218,93.1956836 L77.1765894,93.1956836 Z M92.4515329,116.258322 L92.4515329,59.9227625 L102.510729,59.9227625 C104.758834,67.8704583 111.460192,95.6802336 112.075915,98.6624095 C112.075915,98.6624095 111.750155,83.8088105 111.750155,74.5508188 L111.750155,59.9227625 L119.768874,59.9227625 L119.768874,116.258322 L110.103454,116.258322 C108.313561,109.527841 100.82823,78.628488 100.266204,76.2620795 C100.266204,76.2620795 100.559746,90.7218738 100.559746,100.849816 L100.559746,116.244002 L92.4515329,116.258322 Z M151.288883,116.258322 L144.515929,116.258322 L144.039818,112.746299 C142.819111,115.785756 139.210687,117.096052 135.573626,117.096052 C127.282843,117.096052 124.612323,111.092319 124.612323,101.547924 L124.612323,75.0735051 C124.612323,65.8692142 128.192108,59.0993525 137.986401,59.0993525 C149.817591,59.0993525 151.063356,67.7952774 151.063356,73.8455503 L151.063356,75.6713723 L142.375217,75.6713723 L142.375217,73.4195252 C142.375217,70.4480894 141.945643,67.014828 137.975661,67.014828 C134.811131,67.014828 133.457973,69.2022344 133.457973,73.7023486 L133.457973,102.521696 C133.457973,107.03255 134.764594,109.388219 137.904066,109.388219 C141.67,109.388219 142.590005,106.234201 142.590005,100.438111 L142.590005,92.2040117 L137.66064,92.2040117 L137.66064,84.7503618 L151.288883,84.7503618 L151.288883,116.258322 Z M177.109873,90.5213914 L164.727396,90.5213914 L164.727396,108.267665 L179,108.267665 L179,116.258322 L156.039258,116.258322 L156.039258,59.9227625 L177.797192,59.9227625 L177.797192,67.9957598 L164.727396,67.9957598 L164.727396,82.5450552 L177.109873,82.5450552 L177.109873,90.5213914 Z M12.300142,140.692116 L9.76207428,140.692116 C9.66976047,140.167661 9.60998317,139.637996 9.58308501,139.106157 C8.99600024,140.513114 7.7717137,141 6.40781553,141 C3.29698218,141 2.29822211,138.751733 2.29822211,135.17169 L2.29822211,125.24781 C2.29822211,121.796648 3.64064156,119.258398 7.3099214,119.258398 C11.7452753,119.258398 12.2142271,122.519817 12.2142271,124.785985 L12.2142271,125.473353 L8.96020239,125.473353 L8.96020239,124.628463 C8.96020239,123.515069 8.79911205,122.226254 7.3099214,122.226254 C6.12143271,122.226254 5.616683,123.046084 5.616683,124.732284 L5.616683,135.536854 C5.616683,137.230215 6.10711357,138.114485 7.28128312,138.114485 C8.69529828,138.114485 9.03895766,136.929491 9.03895766,134.759985 L9.03895766,131.673988 L7.19178849,131.673988 L7.19178849,128.874394 L12.300142,128.874394 L12.300142,140.692116 Z M17.1937084,131.244382 L17.1937084,140.692116 L13.9361038,140.692116 L13.9361038,119.569862 L18.4466332,119.569862 C21.6684399,119.569862 23.5585665,120.858677 23.5585665,124.660683 L23.5585665,125.466193 C23.5585665,128.709712 22.2268864,129.536702 21.4106954,129.873226 C22.6421415,130.449613 23.3473592,131.337464 23.3473592,134.205078 C23.3473592,135.9951 23.3151411,139.417621 23.5406676,140.695696 L20.3940364,140.695696 C20.1112333,139.421201 20.1720897,135.948559 20.1720897,134.416301 C20.1720897,131.83867 19.8391696,131.247962 17.9490431,131.247962 L17.1937084,131.244382 Z M17.1937084,128.55577 L17.9383037,128.55577 C19.6637602,128.55577 20.2973822,127.904202 20.2973822,125.609394 L20.2973822,124.893386 C20.2973822,123.260886 19.9608823,122.269214 18.1137132,122.269214 L17.1937084,122.269214 L17.1937084,128.55577 Z M35.4291343,125.172629 L35.4291343,135.039228 C35.4291343,139.088257 33.7108373,141 30.1346319,141 C26.7016179,141 25.1551507,139.038136 25.1551507,135.092929 L25.1551507,125.147569 C25.1551507,121.10212 27.1920485,119.258398 30.3386797,119.258398 C33.5390077,119.258398 35.4255545,121.10928 35.4255545,125.172629 L35.4291343,125.172629 Z M28.4700318,124.854005 L28.4700318,135.479573 C28.4700318,137.237375 29.1036538,138.060785 30.2814031,138.060785 C31.5450673,138.060785 32.1142531,137.291075 32.1142531,135.433033 L32.1142531,124.828945 C32.1142531,123.153485 31.5987641,122.226254 30.2778233,122.226254 C29.100074,122.226254 28.466452,123.067564 28.466452,124.854005 L28.4700318,124.854005 Z M40.283323,119.566282 L40.283323,135.637095 C40.283323,137.180094 40.7880727,138.057205 42.0481571,138.057205 C43.3082415,138.057205 43.7592944,137.069113 43.7592944,135.640675 L43.7592944,119.566282 L47.0204788,119.566282 L47.0204788,135.572655 C47.0204788,138.905675 45.5133892,141 41.9873008,141 C38.633042,141 37.0257185,139.184918 37.0257185,135.583395 L37.0257185,119.566282 L40.283323,119.566282 Z M48.9714617,119.566282 L53.6717197,119.566282 C57.0259784,119.566282 58.7371158,121.223842 58.7371158,124.961407 L58.7371158,126.959071 C58.7371158,130.446033 57.4913505,132.762321 53.4891507,132.762321 L52.2290663,132.762321 L52.2290663,140.692116 L48.9714617,140.692116 L48.9714617,119.566282 Z M52.2290663,130.098769 L53.1240126,130.098769 C55.1537508,130.098769 55.5009899,128.913774 55.5009899,126.851669 L55.5009899,125.061648 C55.5009899,123.525809 55.2217667,122.262054 53.4139752,122.262054 L52.2290663,122.262054 L52.2290663,130.098769 Z" id="Shape"></path>
                </g>
            </g>
        </g>
    </g>
</svg>